<svg width="34" height="34" viewBox="0 0 34 34" fill="none" xmlns="http://www.w3.org/2000/svg">
<g clip-path="url(#clip0_943_581)">
<path d="M29.7277 15.0786C29.7288 15.0075 29.7303 14.9365 29.7303 14.8652C29.7303 6.65537 23.075 0 14.8651 0C6.65537 0 0 6.65543 0 14.8652C0 23.0748 6.65543 29.7303 14.8652 29.7303C14.9365 29.7303 15.0075 29.7288 15.0786 29.7277V21.2677C15.0786 17.855 17.855 15.0786 21.2677 15.0786H29.7277ZM15.8623 14.8662C15.8623 15.4161 15.4161 15.8623 14.8662 15.8623H8.4648C7.91463 15.8623 7.46871 15.4161 7.46871 14.8662C7.46871 14.316 7.91463 13.8701 8.4648 13.8701H13.8701V5.26376C13.8701 4.71352 14.3161 4.26766 14.8662 4.26766C15.4161 4.26766 15.8623 4.71352 15.8623 5.26376L15.8623 14.8662Z" fill="white"/>
<path d="M29.8036 17.0708H21.2682C18.9501 17.0708 17.0713 18.9463 17.0713 21.2677V33.0039C17.0713 33.5334 17.498 34 18.0674 34C18.2606 34 18.4534 33.9437 18.6199 33.8327L21.5698 31.8662H29.8036C32.1176 31.8662 34.0004 29.9835 34.0004 27.6694V21.2677C34.0004 18.9535 32.1177 17.0708 29.8036 17.0708ZM24.5396 27.5986H22.335C21.7851 27.5986 21.3389 27.1523 21.3389 26.6025C21.3389 26.0522 21.7851 25.6064 22.335 25.6064H24.5397C25.0898 25.6064 25.5358 26.0522 25.5358 26.6025C25.5358 27.1523 25.0898 27.5986 24.5397 27.5986H24.5396ZM28.7367 23.3306H22.335C21.7851 23.3306 21.3389 22.8847 21.3389 22.3345C21.3389 21.7846 21.7851 21.3384 22.335 21.3384H28.7367C29.2867 21.3384 29.7328 21.7846 29.7328 22.3345C29.7328 22.8847 29.2869 23.3306 28.7367 23.3306Z" fill="white"/>
</g>
<defs>
<clipPath id="clip0_943_581">
<rect width="34" height="34" fill="white"/>
</clipPath>
</defs>
</svg>
