<svg width="50" height="50" viewBox="0 0 50 50" fill="none" xmlns="http://www.w3.org/2000/svg"><rect width="50" height="50" rx="8.33333" fill="#F5E2FB"></rect><path d="M16.1865 15.1885L21.875 20.877V16.5312H23.4375V23.5625H16.4062V22H20.752L15.0635 16.3115L16.1865 15.1885ZM33.8135 15.1885L34.9365 16.3115L29.248 22H33.5938V23.5625H26.5625V16.5312H28.125V20.877L33.8135 15.1885ZM16.4062 26.6875H23.4375V33.7188H21.875V29.373L16.1865 35.0615L15.0635 33.9385L20.752 28.25H16.4062V26.6875ZM26.5625 26.6875H33.5938V28.25H29.248L34.9365 33.9385L33.8135 35.0615L28.125 29.373V33.7188H26.5625V26.6875Z" fill="#C977E2"></path></svg>