<svg width="7" height="7" viewBox="0 0 7 7" fill="none" xmlns="http://www.w3.org/2000/svg">
<path d="M6.72784 2.13173C7.02073 1.83884 7.02073 1.36397 6.72784 1.07107C6.43495 0.778179 5.96007 0.778179 5.66718 1.07107L3.89941 2.83884L2.13165 1.07107C1.83875 0.778179 1.36388 0.778179 1.07099 1.07107C0.778094 1.36397 0.778094 1.83884 1.07099 2.13173L2.83875 3.8995L1.07099 5.66727C0.778093 5.96016 0.778093 6.43503 1.07099 6.72793C1.36388 7.02082 1.83875 7.02082 2.13165 6.72793L3.89941 4.96016L5.66718 6.72793C5.96007 7.02082 6.43495 7.02082 6.72784 6.72793C7.02073 6.43503 7.02073 5.96016 6.72784 5.66727L4.96007 3.8995L6.72784 2.13173Z" fill="black"/>
</svg>
