<svg width="65" height="65" viewBox="0 0 65 65" fill="none" xmlns="http://www.w3.org/2000/svg">
<path d="M58.3606 33.8859V18.1139C58.3606 17.3533 58.0584 16.6239 57.5207 16.0861C56.9829 15.5483 56.2535 15.2462 55.4929 15.2462H9.61057C8.85002 15.2462 8.12062 15.5483 7.58283 16.0861C7.04505 16.6239 6.74292 17.3533 6.74292 18.1139V33.8859H58.3606Z" fill="#FCB910"/>
<path d="M13.2896 34.6794V8.03605C13.2923 7.18585 13.6313 6.37126 14.2325 5.77008C14.8337 5.16889 15.6482 4.82992 16.4984 4.82715H48.597C49.4483 4.82715 50.2647 5.16533 50.8667 5.76729C51.4686 6.36926 51.8068 7.1857 51.8068 8.037V34.6794H13.2896Z" fill="#E5E8F9"/>
<path d="M2.31707 26.0621C2.27401 25.789 2.29059 25.5099 2.36568 25.2438C2.44077 24.9778 2.57259 24.7311 2.75206 24.5209C2.93154 24.3106 3.15442 24.1417 3.40539 24.0257C3.65635 23.9098 3.92945 23.8496 4.20589 23.8492H17.0338C17.7555 23.8492 18.4151 24.2564 18.7391 24.9007L21.5236 30.4467C21.6818 30.7622 21.9246 31.0275 22.2249 31.2128C22.5253 31.3982 22.8712 31.4963 23.2241 31.4963H60.7989C61.0813 31.4958 61.3602 31.5581 61.6155 31.6787C61.8708 31.7993 62.0961 31.9751 62.2751 32.1936C62.4541 32.412 62.5822 32.6674 62.6503 32.9415C62.7183 33.2155 62.7246 33.5012 62.6686 33.778C62.0798 36.6867 60.7702 43.2279 57.8682 57.8557C57.7391 58.5077 57.3883 59.0948 56.8752 59.5172C56.3622 59.9396 55.7186 60.1713 55.054 60.1728H10.1543C9.47138 60.1727 8.81086 59.9289 8.29164 59.4852C7.77243 59.0415 7.42861 58.4271 7.32207 57.7525L2.31707 26.0621Z" fill="#FFCC33"/>
<path d="M41.2463 11.4227H23.8492C23.6591 11.4227 23.4767 11.3472 23.3423 11.2127C23.2079 11.0783 23.1323 10.8959 23.1323 10.7058C23.1323 10.5157 23.2079 10.3333 23.3423 10.1989C23.4767 10.0644 23.6591 9.98889 23.8492 9.98889H41.2463C41.4364 9.98889 41.6188 10.0644 41.7532 10.1989C41.8877 10.3333 41.9632 10.5157 41.9632 10.7058C41.9632 10.8959 41.8877 11.0783 41.7532 11.2127C41.6188 11.3472 41.4364 11.4227 41.2463 11.4227Z" fill="#FF4848"/>
<path d="M45.3212 16.2088H19.7762C19.5861 16.2088 19.4038 16.1333 19.2693 15.9989C19.1349 15.8644 19.0593 15.6821 19.0593 15.4919C19.0593 15.3018 19.1349 15.1195 19.2693 14.985C19.4038 14.8506 19.5861 14.775 19.7762 14.775H45.3212C45.5114 14.775 45.6937 14.8506 45.8282 14.985C45.9626 15.1195 46.0382 15.3018 46.0382 15.4919C46.0382 15.6821 45.9626 15.8644 45.8282 15.9989C45.6937 16.1333 45.5114 16.2088 45.3212 16.2088ZM45.3212 25.7791H19.7762C19.5861 25.7791 19.4038 25.7036 19.2693 25.5692C19.1349 25.4347 19.0593 25.2524 19.0593 25.0622C19.0593 24.8721 19.1349 24.6897 19.2693 24.5553C19.4038 24.4208 19.5861 24.3453 19.7762 24.3453H45.3212C45.5114 24.3453 45.6937 24.4208 45.8282 24.5553C45.9626 24.6897 46.0382 24.8721 46.0382 25.0622C46.0382 25.2524 45.9626 25.4347 45.8282 25.5692C45.6937 25.7036 45.5114 25.7791 45.3212 25.7791ZM45.3212 20.994H19.7762C19.5861 20.994 19.4038 20.9185 19.2693 20.784C19.1349 20.6496 19.0593 20.4672 19.0593 20.2771C19.0593 20.0869 19.1349 19.9046 19.2693 19.7701C19.4038 19.6357 19.5861 19.5602 19.7762 19.5602H45.3212C45.5114 19.5602 45.6937 19.6357 45.8282 19.7701C45.9626 19.9046 46.0382 20.0869 46.0382 20.2771C46.0382 20.4672 45.9626 20.6496 45.8282 20.784C45.6937 20.9185 45.5114 20.994 45.3212 20.994Z" fill="#C5CEEA"/>
<path d="M28.1719 45.672L32.8385 38.9569C32.9142 38.848 33.0151 38.7591 33.1326 38.6977C33.2501 38.6363 33.3808 38.6042 33.5133 38.6042C33.6459 38.6042 33.7766 38.6363 33.8941 38.6977C34.0116 38.7591 34.1125 38.848 34.1882 38.9569L38.8462 45.6729C38.9317 45.7963 38.9818 45.9407 38.9911 46.0904C39.0004 46.2402 38.9685 46.3897 38.8989 46.5227C38.8293 46.6556 38.7246 46.767 38.5961 46.8447C38.4677 46.9224 38.3205 46.9634 38.1704 46.9634H36.1153V53.4165C36.1153 53.6345 36.0287 53.8436 35.8745 53.9978C35.7203 54.152 35.5112 54.2386 35.2932 54.2386H31.7239C31.5059 54.2386 31.2968 54.152 31.1427 53.9978C30.9885 53.8436 30.9019 53.6345 30.9019 53.4165V46.9634H28.8467C28.6967 46.9632 28.5496 46.9221 28.4213 46.8443C28.2931 46.7666 28.1885 46.6552 28.119 46.5223C28.0495 46.3893 28.0177 46.2399 28.027 46.0902C28.0363 45.9405 28.0864 45.7952 28.1719 45.672Z" fill="#FF4848"/>
<path d="M8.4625 41.881C8.34881 41.8808 8.23891 41.8401 8.15254 41.7661C8.06617 41.6922 8.00899 41.5899 7.99125 41.4776L6.41022 31.4676C6.39773 31.4045 6.3981 31.3395 6.41132 31.2766C6.42454 31.2136 6.45032 31.154 6.48713 31.1013C6.52394 31.0485 6.57102 31.0037 6.62554 30.9696C6.68007 30.9355 6.74092 30.9128 6.80445 30.9027C6.86798 30.8927 6.93289 30.8956 6.99527 30.9112C7.05766 30.9268 7.11626 30.9549 7.16754 30.9937C7.21882 31.0325 7.26174 31.0813 7.29372 31.1371C7.32571 31.1929 7.3461 31.2546 7.35368 31.3185L8.93471 41.3294C8.94548 41.3977 8.94134 41.4674 8.92256 41.5339C8.90379 41.6004 8.87082 41.662 8.82594 41.7145C8.78106 41.767 8.72533 41.8092 8.66259 41.8381C8.59984 41.867 8.53158 41.881 8.4625 41.881Z" fill="white"/>
</svg>
