<svg width="50" height="50" viewBox="0 0 50 50" fill="none" xmlns="http://www.w3.org/2000/svg"><rect width="50" height="50" rx="8.33333" fill="#DDF3E7"></rect><path d="M14.0625 16.5312H35.9375V33.7188H14.0625V16.5312ZM15.625 18.0938V28.1523L21.0938 22.6836L26.1475 27.7861L29.6875 24.2461L34.375 28.958V18.0938H15.625ZM31.25 19.6562C31.6895 19.6562 32.0557 19.8109 32.3486 20.1201C32.6579 20.4131 32.8125 20.7793 32.8125 21.2188C32.8125 21.6582 32.6579 22.0326 32.3486 22.3418C32.0557 22.6348 31.6895 22.7812 31.25 22.7812C30.8105 22.7812 30.4362 22.6348 30.127 22.3418C29.834 22.0326 29.6875 21.6582 29.6875 21.2188C29.6875 20.7793 29.834 20.4131 30.127 20.1201C30.4362 19.8109 30.8105 19.6562 31.25 19.6562ZM21.0938 24.9053L15.625 30.374V32.1562H28.2715L21.0938 24.9053ZM29.6875 26.4678L27.2461 28.8848L30.4932 32.1562H34.375V31.1553L29.6875 26.4678Z" fill="#00AD57"></path></svg>