<svg width="26" height="26" viewBox="0 0 26 26" fill="none" xmlns="http://www.w3.org/2000/svg">
<path d="M17.9781 1.6058H2.94023C1.31879 1.6058 0 2.92459 0 4.54604V17.7238C0 18.3479 0.705809 18.6997 1.20402 18.3438L5.39195 15.3558C5.74336 15.1055 6.15672 14.973 6.58836 14.973H15.7996C17.421 14.973 18.7398 13.6542 18.7398 12.0327V2.36752C18.7398 1.94705 18.3986 1.6058 17.9781 1.6058ZM14.2782 10.8333H5.47727C5.0568 10.8333 4.71555 10.4925 4.71555 10.0715C4.71555 9.65108 5.0568 9.30983 5.47727 9.30983H14.2782C14.6986 9.30983 15.0399 9.65108 15.0399 10.0715C15.0399 10.4925 14.6986 10.8333 14.2782 10.8333ZM14.2782 7.27858H5.47727C5.0568 7.27858 4.71555 6.93784 4.71555 6.51686C4.71555 6.09639 5.0568 5.75514 5.47727 5.75514H14.2782C14.6986 5.75514 15.0399 6.09639 15.0399 6.51686C15.0399 6.93784 14.6986 7.27858 14.2782 7.27858Z" fill="#222222"/>
<path d="M26.0001 10.4544V23.6317C26.0001 24.2516 25.2978 24.6101 24.796 24.2517L20.6081 21.2642C20.2567 21.0139 19.8433 20.8814 19.4117 20.8814H10.2005C8.57904 20.8814 7.26025 19.5621 7.26025 17.9406V16.4964H15.7996C18.261 16.4964 20.2633 14.4941 20.2633 12.0327V7.5137H23.0598C24.6813 7.5137 26.0001 8.833 26.0001 10.4544Z" fill="#222222"/>
</svg>
