<svg width="50" height="50" viewBox="0 0 50 50" fill="none" xmlns="http://www.w3.org/2000/svg"><rect width="50" height="50" rx="8.33333" fill="#E2FAFB"></rect><path d="M33.7646 16.8242L34.9854 17.8008L31.4697 22.1953L28.3936 20.6816L25.1953 25.4668L21.875 22.9766L18.9209 25.1982L15.4297 24.3193L15.8203 22.8057L18.5791 23.4893L21.875 21.0234L24.8047 23.2207L27.4658 19.2168L27.8564 18.6553L28.4668 18.9482L31.0303 20.2422L33.7646 16.8242ZM28.1738 26.9316L28.7842 27.8105L31.3232 31.5947L33.7646 28.543L34.9854 29.5195L31.2012 34.2559L30.5908 33.377L28.0518 29.5928L25.1465 33.2305L24.5361 32.791L21.875 30.7891L19.2139 32.791L18.8232 33.0596L18.4082 32.8643L15.2832 31.3018L15.9668 29.8857L18.6768 31.2285L21.875 28.8359L24.8535 31.082L27.5146 27.7617L28.1738 26.9316Z" fill="#00C7D5"></path></svg>