<svg width="21" height="20" viewBox="0 0 21 20" fill="none" xmlns="http://www.w3.org/2000/svg">
<path fill-rule="evenodd" clip-rule="evenodd" d="M12.4515 13.3833C11.5285 14.0841 10.3773 14.5 9.12891 14.5C6.09134 14.5 3.62891 12.0376 3.62891 9C3.62891 5.96243 6.09134 3.5 9.12891 3.5C12.1665 3.5 14.6289 5.96243 14.6289 9C14.6289 10.2484 14.213 11.3996 13.5122 12.3226L16.4092 15.2197C16.7021 15.5126 16.7021 15.9874 16.4092 16.2803C16.1163 16.5732 15.6415 16.5732 15.3486 16.2803L12.4515 13.3833ZM13.1289 9C13.1289 11.2091 11.338 13 9.12891 13C6.91977 13 5.12891 11.2091 5.12891 9C5.12891 6.79086 6.91977 5 9.12891 5C11.338 5 13.1289 6.79086 13.1289 9Z" fill="#8A8A8A"/>
</svg>
