<svg width="34" height="34" viewBox="0 0 34 34" fill="none" xmlns="http://www.w3.org/2000/svg">
<path d="M28.953 9.03073H25.8983V16.0034C25.8983 19.8477 22.77 22.976 18.9257 22.976H10.8441L10.2217 23.4947C10.8672 25.4975 12.7267 26.9604 14.9413 26.9604H23.7446L28.3149 30.7142C28.965 31.2537 29.949 30.7901 29.949 29.9487V26.8602C32.2194 26.3972 33.9998 24.3855 33.9998 21.9799V14.0112C33.9999 11.2651 31.6991 9.03073 28.953 9.03073Z" fill="white"/>
<path d="M18.9258 3.05415H4.98047C2.23437 3.05415 0 5.28852 0 8.03462V16.0034C0 18.4089 1.71401 20.4206 3.98438 20.8836V23.9721C3.98438 24.8187 4.97243 25.2739 5.61857 24.7377L10.1224 20.9838H18.9258C21.6719 20.9838 23.9062 18.7495 23.9062 16.0034V8.03462C23.9062 5.28852 21.6719 3.05415 18.9258 3.05415ZM18.9258 15.0073H4.98047C4.42989 15.0073 3.98438 14.5618 3.98438 14.0112C3.98438 13.4606 4.42989 13.0151 4.98047 13.0151H18.9258C19.4764 13.0151 19.9219 13.4606 19.9219 14.0112C19.9219 14.5618 19.4764 15.0073 18.9258 15.0073ZM18.9258 11.0229H4.98047C4.42989 11.0229 3.98438 10.5774 3.98438 10.0268C3.98438 9.47624 4.42989 9.03072 4.98047 9.03072H18.9258C19.4764 9.03072 19.9219 9.47624 19.9219 10.0268C19.9219 10.5774 19.4764 11.0229 18.9258 11.0229Z" fill="white"/>
</svg>
