<svg width="21" height="20" viewBox="0 0 21 20" fill="none" xmlns="http://www.w3.org/2000/svg">
<path d="M11.0303 6.5C11.0303 7.05228 10.5826 7.5 10.0303 7.5C9.47799 7.5 9.03027 7.05228 9.03027 6.5C9.03027 5.94772 9.47799 5.5 10.0303 5.5C10.5826 5.5 11.0303 5.94772 11.0303 6.5Z" fill="#4A4A4A"/>
<path d="M7.03027 9C7.58256 9 8.03027 8.55228 8.03027 8C8.03027 7.44772 7.58256 7 7.03027 7C6.47799 7 6.03027 7.44772 6.03027 8C6.03027 8.55228 6.47799 9 7.03027 9Z" fill="#4A4A4A"/>
<path d="M8.03027 11.5C8.03027 12.0523 7.58256 12.5 7.03027 12.5C6.47799 12.5 6.03027 12.0523 6.03027 11.5C6.03027 10.9477 6.47799 10.5 7.03027 10.5C7.58256 10.5 8.03027 10.9477 8.03027 11.5Z" fill="#4A4A4A"/>
<path d="M13.0303 9C13.5826 9 14.0303 8.55228 14.0303 8C14.0303 7.44772 13.5826 7 13.0303 7C12.478 7 12.0303 7.44772 12.0303 8C12.0303 8.55228 12.478 9 13.0303 9Z" fill="#4A4A4A"/>
<path fill-rule="evenodd" clip-rule="evenodd" d="M10.0303 3C6.16428 3 3.03027 6.13401 3.03027 10C3.03027 13.866 6.16428 17 10.0303 17C10.9968 17 11.7803 16.2165 11.7803 15.25V13.75C11.7803 12.6454 12.6757 11.75 13.7803 11.75H15.2803C16.2468 11.75 17.0303 10.9665 17.0303 10C17.0303 6.13401 13.8963 3 10.0303 3ZM13.7803 10.25H15.2803C15.4183 10.25 15.5303 10.1381 15.5303 10C15.5303 6.96243 13.0678 4.5 10.0303 4.5C6.99271 4.5 4.53027 6.96243 4.53027 10C4.53027 13.0376 6.99271 15.5 10.0303 15.5C10.1683 15.5 10.2803 15.3881 10.2803 15.25V13.75C10.2803 11.817 11.8473 10.25 13.7803 10.25Z" fill="#4A4A4A"/>
</svg>
