<svg width="20" height="20" viewBox="0 0 20 20" fill="none" xmlns="http://www.w3.org/2000/svg">
<path fill-rule="evenodd" clip-rule="evenodd" d="M15.2728 5.66699C14.3835 4.77766 12.9416 4.77767 12.0523 5.66701L11.5465 6.17283L11.5391 6.16543L10.6427 7.06183L10.6501 7.06924L5.68069 12.0388C5.24485 12.4747 5 13.0658 5 13.6822V15.3062C5 15.4743 5.06678 15.6355 5.18565 15.7544C5.30452 15.8732 5.46574 15.94 5.63385 15.94L7.2578 15.94C7.87421 15.94 8.46536 15.6951 8.90122 15.2593L15.2728 8.88745C16.1621 7.99813 16.1621 6.55629 15.2728 5.66699ZM11.5465 7.96563L6.5771 12.9352C6.37899 13.1333 6.26769 13.402 6.26769 13.6822L6.26769 14.6723H7.2578C7.53799 14.6723 7.80669 14.561 8.00481 14.3629L12.9742 9.39333L11.5465 7.96563ZM13.8706 8.49693L14.3764 7.99107C14.7707 7.59682 14.7707 6.95762 14.3764 6.56338C13.9822 6.16912 13.3429 6.16913 12.9487 6.56339L12.4429 7.06922L13.8706 8.49693Z" fill="#616161"/>
</svg>
