<svg width="30" height="34" viewBox="0 0 30 34" fill="none" xmlns="http://www.w3.org/2000/svg">
<path d="M26.7773 0.0664062H6.79688C5.01984 0.0664062 3.57422 1.70478 3.57422 3.71875V4.11719H19.6875C22.4336 4.11719 24.668 6.64946 24.668 9.76172V19.4339L28.5066 23.6886C29.0597 24.3022 30 23.8609 30 22.9766V3.71875C30 1.70478 28.5544 0.0664062 26.7773 0.0664062ZM11.7322 14.2252L11.4551 13.5287L11.1779 14.2252C11.1152 14.3832 11.0171 14.52 10.8934 14.6218C10.7697 14.7237 10.6247 14.7872 10.4727 14.806L9.80256 14.8895L10.3013 15.4034C10.4145 15.5199 10.4988 15.6678 10.5461 15.8326C10.5934 15.9974 10.6019 16.1733 10.5709 16.3429L10.4338 17.0913L11.0191 16.7121C11.1519 16.6262 11.3022 16.581 11.4551 16.581C11.608 16.581 11.7583 16.6262 11.8911 16.7121L12.4764 17.0913L12.3393 16.3429C12.3082 16.1733 12.3168 15.9974 12.3641 15.8326C12.4113 15.6678 12.4957 15.5199 12.6088 15.4034L13.1076 14.8895L12.4375 14.806C12.2855 14.7872 12.1404 14.7237 12.0167 14.6218C11.8931 14.52 11.795 14.3832 11.7322 14.2252Z" fill="white"/>
<path d="M19.6875 6.10938H3.22266C1.44563 6.10938 0 7.74775 0 9.76172V29.0195C0 29.9092 0.954902 30.3492 1.50375 29.7199L6.46066 24.0391H19.6875C21.4645 24.0391 22.9102 22.4007 22.9102 20.3867V9.76172C22.9102 7.74775 21.4645 6.10938 19.6875 6.10938ZM15.7329 14.8777L14.1625 16.495L14.5939 18.8495C14.748 19.6892 13.9518 20.3408 13.2976 19.9172L11.4551 18.7242L9.6126 19.9172C8.9557 20.3426 8.16264 19.6874 8.31621 18.8495L8.74764 16.495L7.17732 14.8776C6.61834 14.302 6.92068 13.2439 7.67256 13.1502L9.78193 12.888L10.6538 10.6955C10.9641 9.91505 11.9456 9.91425 12.2563 10.6955L13.1285 12.888L15.2378 13.1503C15.9883 13.2437 16.2925 14.3012 15.7329 14.8777Z" fill="white"/>
</svg>
