<svg width="34" height="34" viewBox="0 0 34 34" fill="none" xmlns="http://www.w3.org/2000/svg">
<path d="M23.043 6.09709H21.7176L27.2662 17.1944C27.6809 18.0235 27.6376 18.9897 27.1501 19.7786C26.6625 20.5675 25.8178 21.0385 24.8904 21.0385H9.10968C8.18225 21.0385 7.33749 20.5675 6.85 19.7786C6.36252 18.9897 6.31915 18.0235 6.73399 17.1941L12.2825 6.09709H10.957C4.91532 6.09709 0 11.0124 0 17.0541C0 21.9333 3.22927 26.2201 7.90234 27.5784V31.0658C7.90234 31.9582 8.98105 32.3924 9.60288 31.77L13.3604 28.0112H23.043C29.0847 28.0112 34 23.0958 34 17.0541C34 11.0124 29.0847 6.09709 23.043 6.09709Z" fill="white"/>
<path d="M9.10925 19.0463H24.89C25.3837 19.0463 25.7048 18.5268 25.484 18.0853L17.5936 2.30456C17.3489 1.81508 16.6504 1.81508 16.4056 2.30456L8.51525 18.0853C8.29458 18.5268 8.61565 19.0463 9.10925 19.0463ZM16.0069 9.08537C16.0069 8.53526 16.4529 8.08928 17.003 8.08928C17.5531 8.08928 17.9991 8.53526 17.9991 9.08537V12.077C17.9991 12.6271 17.5531 13.0731 17.003 13.0731C16.4529 13.0731 16.0069 12.6271 16.0069 12.077V9.08537ZM16.9996 14.0658C17.5498 14.0658 17.9957 14.5118 17.9957 15.0619C17.9957 15.612 17.5498 16.058 16.9996 16.058C16.4495 16.058 16.0035 15.612 16.0035 15.0619C16.0035 14.5118 16.4495 14.0658 16.9996 14.0658Z" fill="white"/>
</svg>
