<svg width="24" height="24" viewBox="0 0 24 24" fill="none" xmlns="http://www.w3.org/2000/svg">
<path d="M13.8515 19.4297C13.6111 19.1818 13.3233 18.9848 13.0052 18.8503C12.6871 18.7159 12.3453 18.6467 12 18.6469H11.9531C10.4718 18.6469 9.27652 19.8469 9.27652 21.3234C9.27652 22.8 10.4718 24 11.9531 24H12C13.4812 23.9766 14.6578 22.7578 14.6343 21.2766C14.6203 20.5828 14.339 19.9219 13.8515 19.4297ZM16.9968 1.84219C15.8156 0.628125 14.1328 0.009375 12 0H11.9531C10.2656 0 8.82652 0.459375 7.6734 1.36875C7.12496 1.8 6.63746 2.30156 6.22027 2.85938C5.81715 3.40313 5.48902 4.00313 5.25465 4.64062C5.15152 4.92656 5.28277 5.24062 5.55934 5.3625L8.0859 6.47344C8.37652 6.6 8.71402 6.47344 8.84059 6.18281C8.84527 6.17812 8.84527 6.16875 8.84996 6.16406C9.08434 5.59219 9.45934 5.02969 9.96559 4.49531C10.4156 4.01719 11.0671 3.7875 11.9531 3.7875H12C12.9093 3.79688 13.589 4.03594 14.0765 4.52344C14.5687 5.02031 14.8078 5.62031 14.8078 6.37031C14.8078 6.99844 14.6203 7.575 14.2359 8.13281C13.814 8.74687 13.1906 9.42656 12.3843 10.1531C12.2531 10.275 12.1218 10.3922 12.0046 10.5094C11.2875 11.2125 10.7906 11.8641 10.4953 12.4969C10.3218 12.8672 10.1906 13.3312 10.0968 13.8937C9.9984 14.5547 9.94684 15.2203 9.94684 15.8906C9.94215 16.2094 10.1953 16.4672 10.5093 16.4766H13.5328C13.8468 16.4766 14.1 16.2281 14.1046 15.9141C14.1281 14.6344 14.2734 14.0109 14.3953 13.7109C14.5125 13.4203 14.8921 12.8438 16.0312 11.7469C16.9734 10.8469 17.6765 9.96562 18.1125 9.13125C18.5625 8.26875 18.7921 7.29844 18.7921 6.24844C18.7828 4.54688 18.1828 3.06094 16.9968 1.84219Z" fill="#FE6C5F"/>
</svg>
