<svg width="50" height="50" viewBox="0 0 50 50" fill="none" xmlns="http://www.w3.org/2000/svg"><rect width="50" height="50" rx="8.33333" fill="#FBF6E2"></rect><path d="M25 17.3125C26.6927 17.3125 28.2715 17.7438 29.7363 18.6064C31.1523 19.4202 32.2754 20.5352 33.1055 21.9512C33.9518 23.416 34.375 24.9948 34.375 26.6875C34.375 27.7943 34.1878 28.8685 33.8135 29.9102C33.4391 30.903 32.9102 31.8145 32.2266 32.6445L32.0068 32.9375H17.9932L17.7734 32.6445C17.0898 31.8145 16.5609 30.903 16.1865 29.9102C15.8122 28.8685 15.625 27.7943 15.625 26.6875C15.625 24.9948 16.0563 23.416 16.9189 21.9512C17.7327 20.5352 18.8477 19.4202 20.2637 18.6064C21.7285 17.7438 23.3073 17.3125 25 17.3125ZM25 18.875C23.584 18.875 22.2656 19.2331 21.0449 19.9492C19.873 20.6328 18.9453 21.5605 18.2617 22.7324C17.5456 23.9531 17.1875 25.2715 17.1875 26.6875C17.1875 27.5501 17.334 28.3883 17.627 29.2021C17.9036 29.9834 18.2943 30.7077 18.7988 31.375H31.2012C31.7057 30.7077 32.0964 29.9834 32.373 29.2021C32.666 28.3883 32.8125 27.5501 32.8125 26.6875C32.8125 25.2715 32.4544 23.9531 31.7383 22.7324C31.0547 21.5605 30.127 20.6328 28.9551 19.9492C27.7344 19.2331 26.416 18.875 25 18.875ZM25 19.6562C25.2116 19.6562 25.3906 19.7376 25.5371 19.9004C25.6999 20.0469 25.7812 20.2259 25.7812 20.4375C25.7812 20.6491 25.6999 20.8363 25.5371 20.999C25.3906 21.1455 25.2116 21.2188 25 21.2188C24.7884 21.2188 24.6012 21.1455 24.4385 20.999C24.292 20.8363 24.2188 20.6491 24.2188 20.4375C24.2188 20.2259 24.292 20.0469 24.4385 19.9004C24.6012 19.7376 24.7884 19.6562 25 19.6562ZM21.875 20.4863C22.0866 20.4863 22.2656 20.5677 22.4121 20.7305C22.5749 20.877 22.6562 21.056 22.6562 21.2676C22.6562 21.4792 22.5749 21.6663 22.4121 21.8291C22.2656 21.9756 22.0866 22.0488 21.875 22.0488C21.6634 22.0488 21.4762 21.9756 21.3135 21.8291C21.167 21.6663 21.0938 21.4792 21.0938 21.2676C21.0938 21.056 21.167 20.877 21.3135 20.7305C21.4762 20.5677 21.6634 20.4863 21.875 20.4863ZM28.125 20.4863C28.3366 20.4863 28.5156 20.5677 28.6621 20.7305C28.8249 20.877 28.9062 21.056 28.9062 21.2676C28.9062 21.4792 28.8249 21.6663 28.6621 21.8291C28.5156 21.9756 28.3366 22.0488 28.125 22.0488C27.9134 22.0488 27.7262 21.9756 27.5635 21.8291C27.417 21.6663 27.3438 21.4792 27.3438 21.2676C27.3438 21.056 27.417 20.877 27.5635 20.7305C27.7262 20.5677 27.9134 20.4863 28.125 20.4863ZM19.5801 22.7812C19.7917 22.7812 19.9707 22.8626 20.1172 23.0254C20.2799 23.1719 20.3613 23.3509 20.3613 23.5625C20.3613 23.7741 20.2799 23.9613 20.1172 24.124C19.9707 24.2705 19.7917 24.3438 19.5801 24.3438C19.3685 24.3438 19.1813 24.2705 19.0186 24.124C18.8721 23.9613 18.7988 23.7741 18.7988 23.5625C18.7988 23.3509 18.8721 23.1719 19.0186 23.0254C19.1813 22.8626 19.3685 22.7812 19.5801 22.7812ZM30.2002 22.8057L30.9814 24.1729L26.5625 26.6875V26.7119C26.5625 27.1351 26.4079 27.5013 26.0986 27.8105C25.7894 28.1035 25.415 28.25 24.9756 28.25C24.5524 28.25 24.1862 28.1035 23.877 27.8105C23.584 27.5013 23.4375 27.127 23.4375 26.6875C23.4375 26.248 23.584 25.8818 23.877 25.5889C24.1862 25.2796 24.5605 25.125 25 25.125C25.2767 25.125 25.5371 25.1982 25.7812 25.3447L30.2002 22.8057ZM18.75 25.9062C18.9616 25.9062 19.1406 25.9876 19.2871 26.1504C19.4499 26.2969 19.5312 26.4759 19.5312 26.6875C19.5312 26.8991 19.4499 27.0863 19.2871 27.249C19.1406 27.3955 18.9616 27.4688 18.75 27.4688C18.5384 27.4688 18.3512 27.3955 18.1885 27.249C18.042 27.0863 17.9688 26.8991 17.9688 26.6875C17.9688 26.4759 18.042 26.2969 18.1885 26.1504C18.3512 25.9876 18.5384 25.9062 18.75 25.9062ZM31.25 25.9062C31.4616 25.9062 31.6406 25.9876 31.7871 26.1504C31.9499 26.2969 32.0312 26.4759 32.0312 26.6875C32.0312 26.8991 31.9499 27.0863 31.7871 27.249C31.6406 27.3955 31.4616 27.4688 31.25 27.4688C31.0384 27.4688 30.8512 27.3955 30.6885 27.249C30.542 27.0863 30.4688 26.8991 30.4688 26.6875C30.4688 26.4759 30.542 26.2969 30.6885 26.1504C30.8512 25.9876 31.0384 25.9062 31.25 25.9062ZM19.5801 29.0312C19.7917 29.0312 19.9707 29.1126 20.1172 29.2754C20.2799 29.4219 20.3613 29.6009 20.3613 29.8125C20.3613 30.0241 20.2799 30.2113 20.1172 30.374C19.9707 30.5205 19.7917 30.5938 19.5801 30.5938C19.3685 30.5938 19.1813 30.5205 19.0186 30.374C18.8721 30.2113 18.7988 30.0241 18.7988 29.8125C18.7988 29.6009 18.8721 29.4219 19.0186 29.2754C19.1813 29.1126 19.3685 29.0312 19.5801 29.0312ZM30.4199 29.0312C30.6315 29.0312 30.8105 29.1126 30.957 29.2754C31.1198 29.4219 31.2012 29.6009 31.2012 29.8125C31.2012 30.0241 31.1198 30.2113 30.957 30.374C30.8105 30.5205 30.6315 30.5938 30.4199 30.5938C30.2083 30.5938 30.0212 30.5205 29.8584 30.374C29.7119 30.2113 29.6387 30.0241 29.6387 29.8125C29.6387 29.6009 29.7119 29.4219 29.8584 29.2754C30.0212 29.1126 30.2083 29.0312 30.4199 29.0312Z" fill="#F3C56B"></path></svg>