<svg width="20" height="20" viewBox="0 0 20 20" fill="none" xmlns="http://www.w3.org/2000/svg">
<path fill-rule="evenodd" clip-rule="evenodd" d="M4.79736 9.65663L2.83383 4.28276C2.52729 3.44381 3.39071 2.65443 4.1989 3.03475L17.0769 9.09501C17.8425 9.45529 17.8425 10.5444 17.0769 10.9046L4.19889 16.9649C3.39071 17.3452 2.52729 16.5558 2.83383 15.7169L4.79736 10.343C4.87834 10.1214 4.87834 9.87826 4.79736 9.65663ZM6.20626 9.14184L4.6598 4.90944L13.8835 9.25H6.243C6.2316 9.21374 6.21935 9.17768 6.20626 9.14184ZM6.24289 10.75C6.23152 10.7861 6.21931 10.8221 6.20626 10.8578L4.6598 15.0902L13.8828 10.75H6.24289Z" fill="white"/>
</svg>
