<svg width="34" height="34" viewBox="0 0 34 34" fill="none" xmlns="http://www.w3.org/2000/svg">
<g clip-path="url(#clip0_943_571)">
<path d="M26.3633 0.868988H7.63672C3.42583 0.868988 0 4.29482 0 8.50571V17.8026C0 21.6761 2.8985 24.8851 6.64062 25.3746V32.1348C6.64061 32.2656 6.66635 32.3952 6.71639 32.516C6.76643 32.6369 6.83979 32.7467 6.93226 32.8392C7.02474 32.9317 7.13454 33.005 7.25537 33.0551C7.37621 33.1052 7.50572 33.1309 7.63652 33.1309C7.8957 33.1309 8.1505 33.0297 8.34102 32.8391L15.7409 25.4393H26.3633C30.5742 25.4393 34 22.0135 34 17.8026V8.50571C34 4.29482 30.5742 0.868988 26.3633 0.868988ZM9.03132 15.5558C7.93103 15.5558 7.03913 14.6639 7.03913 13.5636C7.03913 12.4634 7.9311 11.5714 9.03132 11.5714C10.1315 11.5714 11.0235 12.4634 11.0235 13.5636C11.0235 14.6638 10.1316 15.5558 9.03132 15.5558ZM17.0001 15.5558C15.8998 15.5558 15.0079 14.6639 15.0079 13.5636C15.0079 12.4634 15.8998 11.5714 17.0001 11.5714C18.1003 11.5714 18.9923 12.4634 18.9923 13.5636C18.9923 14.6638 18.1003 15.5558 17.0001 15.5558ZM24.9688 15.5558C23.8686 15.5558 22.9766 14.6639 22.9766 13.5636C22.9766 12.4634 23.8686 11.5714 24.9688 11.5714C26.069 11.5714 26.961 12.4634 26.961 13.5636C26.961 14.6638 26.069 15.5558 24.9688 15.5558Z" fill="white"/>
</g>
<defs>
<clipPath id="clip0_943_571">
<rect width="34" height="34" fill="white"/>
</clipPath>
</defs>
</svg>
