<svg width="26" height="26" viewBox="0 0 26 26" fill="none" xmlns="http://www.w3.org/2000/svg">
<g clip-path="url(#clip0_256_968)">
<path d="M24.2227 12.7969H23.9688V20.4141H24.2227C25.2027 20.4141 26 19.6167 26 18.6367V14.5742C26 13.5942 25.2027 12.7969 24.2227 12.7969ZM0 14.5742V18.6367C0 19.6167 0.797316 20.4141 1.77734 20.4141H2.03125V12.7969H1.77734C0.797316 12.7969 0 13.5942 0 14.5742ZM19.6523 9.24219H6.34766C4.80513 9.24219 3.55469 10.4926 3.55469 12.0352V21.1758C3.55469 22.7183 4.80513 23.9688 6.34766 23.9688H14.8309L18.208 25.8985C18.7158 26.1887 19.3477 25.822 19.3477 25.2371V23.9688H19.6523C21.1949 23.9688 22.4453 22.7183 22.4453 21.1758V12.0352C22.4453 10.4926 21.1949 9.24219 19.6523 9.24219ZM8.68359 14.5742C8.68359 14.9949 8.34255 15.3359 7.92188 15.3359C7.5012 15.3359 7.16016 14.9949 7.16016 14.5742C7.16016 13.3142 8.18528 12.2891 9.44531 12.2891C10.7053 12.2891 11.7305 13.3142 11.7305 14.5742C11.7305 14.9949 11.3894 15.3359 10.9688 15.3359C10.5481 15.3359 10.207 14.9949 10.207 14.5742C10.207 14.1542 9.86532 13.8125 9.44531 13.8125C9.0253 13.8125 8.68359 14.1542 8.68359 14.5742ZM15.9886 19.6831C15.1647 20.5071 14.0823 20.919 13 20.919C11.9177 20.919 10.8354 20.5071 10.0114 19.6831C9.71395 19.3857 9.71395 18.9034 10.0114 18.6059C10.3088 18.3085 10.7912 18.3085 11.0886 18.6059C12.1426 19.6598 13.8574 19.6598 14.9113 18.6059C15.2087 18.3085 15.6911 18.3085 15.9885 18.6059C16.286 18.9034 16.286 19.3857 15.9886 19.6831ZM18.0781 15.3359C17.6575 15.3359 17.3164 14.9949 17.3164 14.5742C17.3164 14.1542 16.9747 13.8125 16.5547 13.8125C16.1347 13.8125 15.793 14.1542 15.793 14.5742C15.793 14.9949 15.4519 15.3359 15.0312 15.3359C14.6106 15.3359 14.2695 14.9949 14.2695 14.5742C14.2695 13.3142 15.2947 12.2891 16.5547 12.2891C17.8147 12.2891 18.8398 13.3142 18.8398 14.5742C18.8398 14.9949 18.4988 15.3359 18.0781 15.3359ZM17.5703 6.19531H17.3164V4.4393C18.203 4.12486 18.8398 3.27818 18.8398 2.28516C18.8398 1.02512 17.8147 0 16.5547 0C15.2947 0 14.2695 1.02512 14.2695 2.28516C14.2695 3.27818 14.9064 4.12486 15.793 4.4393V6.19531H10.207V4.4393C11.0936 4.12486 11.7305 3.27818 11.7305 2.28516C11.7305 1.02512 10.7053 0 9.44531 0C8.18528 0 7.16016 1.02512 7.16016 2.28516C7.16016 3.27818 7.797 4.12486 8.68359 4.4393V6.19531H8.42969C7.43666 6.19531 6.58998 6.83216 6.27555 7.71875H19.7245C19.41 6.83216 18.5633 6.19531 17.5703 6.19531Z" fill="#222222"/>
</g>
<defs>
<clipPath id="clip0_256_968">
<rect width="26" height="26" fill="white"/>
</clipPath>
</defs>
</svg>
