<svg width="36" height="36" viewBox="0 0 36 36" fill="none" xmlns="http://www.w3.org/2000/svg">
<path d="M30.5098 11.2036C30.5098 11.9846 29.8767 12.6176 29.0958 12.6176C28.3148 12.6176 27.6817 11.9846 27.6817 11.2036V10.2421C27.6817 9.46114 27.0487 8.82805 26.2677 8.82805L10.2421 8.82806C9.46114 8.82806 8.82805 9.46114 8.82805 10.2421V11.2036C8.82805 11.9846 8.19497 12.6176 7.41403 12.6176C6.63308 12.6176 6 11.9846 6 11.2036V10.2421C6 7.89925 7.89925 6 10.2421 6H26.2677C28.6106 6 30.5098 7.89925 30.5098 10.2421V11.2036Z" fill="#4A4A4A"/>
<path d="M19.6689 29.586C19.6689 30.3669 19.0358 31 18.2549 31C17.474 31 16.8409 30.3669 16.8409 29.586V16.9741L13.5987 20.2163C13.0465 20.7685 12.1511 20.7685 11.5989 20.2163C11.0467 19.6641 11.0467 18.7688 11.5989 18.2166L17.255 12.5605C17.8072 12.0083 18.7026 12.0083 19.2548 12.5605L24.9109 18.2166C25.4631 18.7688 25.4631 19.6641 24.9109 20.2163C24.3587 20.7685 23.4634 20.7685 22.9111 20.2163L19.6689 16.9741L19.6689 29.586Z" fill="#4A4A4A"/>
</svg>
