<svg width="34" height="34" viewBox="0 0 34 34" fill="none" xmlns="http://www.w3.org/2000/svg">
<g clip-path="url(#clip0_943_631)">
<path d="M24.9689 17.9961C24.4188 17.9961 23.9728 17.5501 23.9728 17C23.9728 16.4499 24.4188 16.0039 24.9689 16.0039H27.9066C27.6836 13.5388 26.631 11.1353 24.748 9.25225C22.865 7.36923 20.4614 6.3167 17.9963 6.09357V9.03125C17.9963 9.58136 17.5503 10.0273 17.0002 10.0273C16.4501 10.0273 16.0041 9.58136 16.0041 9.03125V6.09357C13.539 6.31663 11.1354 7.36917 9.25236 9.25218C7.36935 11.1353 6.31687 13.5388 6.09375 16.0039H9.03143C9.58154 16.0039 10.0275 16.4499 10.0275 17C10.0275 17.5501 9.58154 17.9961 9.03143 17.9961H6.09375C6.31681 20.4612 7.36935 22.8647 9.25236 24.7478C11.1354 26.6308 13.539 27.6833 16.0041 27.9064V24.9688C16.0041 24.4186 16.4501 23.9727 17.0002 23.9727C17.5503 23.9727 17.9963 24.4186 17.9963 24.9688V27.9064C20.4614 27.6834 22.865 26.6308 24.748 24.7478C26.631 22.8648 27.6835 20.4613 27.9066 17.9962H24.9689V17.9961ZM21.9306 13.4783L17.7045 17.7044C17.51 17.8989 17.2551 17.9961 17.0002 17.9961C16.7452 17.9961 16.4903 17.8989 16.2959 17.7043L12.0698 13.4782C11.6808 13.0892 11.6808 12.4585 12.0698 12.0695C12.4587 11.6805 13.0894 11.6805 13.4785 12.0695L17.0002 15.5913L20.5219 12.0696C20.9108 11.6806 21.5416 11.6806 21.9306 12.0696C22.3196 12.4586 22.3196 13.0893 21.9306 13.4783Z" fill="white"/>
<path d="M29.007 4.99295C25.7873 1.77318 21.5231 0 17 0C14.3862 0 11.8712 0.595066 9.52452 1.76866C8.56116 2.25044 7.63984 2.82864 6.77795 3.48859L6.88845 3.15709C7.06237 2.6352 6.78034 2.07108 6.25846 1.89709C5.7367 1.72318 5.17245 2.0052 4.99847 2.52709L3.58979 6.75318C3.32974 7.53312 4.07495 8.27123 4.84978 8.01318L9.07587 6.6045C9.59776 6.43052 9.87979 5.86639 9.70587 5.34451C9.53454 4.83072 8.98523 4.55042 8.47038 4.70767C10.9556 2.95382 13.913 1.99219 17 1.99219C25.2753 1.99219 32.0078 8.72465 32.0078 17C32.0078 25.2753 25.2753 32.0078 17 32.0078C8.72465 32.0078 1.99219 25.2753 1.99219 17C1.99219 16.4499 1.5462 16.0039 0.996094 16.0039C0.445984 16.0039 0 16.4499 0 17C0 21.5231 1.77318 25.7873 4.99295 29.007C8.21266 32.2268 12.4769 34 17 34C21.5231 34 25.7873 32.2268 29.007 29.007C32.2268 25.7873 34 21.5231 34 17C34 12.4769 32.2268 8.21266 29.007 4.99295Z" fill="white"/>
</g>
<defs>
<clipPath id="clip0_943_631">
<rect width="34" height="34" fill="white"/>
</clipPath>
</defs>
</svg>
