<svg width="24" height="24" viewBox="0 0 24 24" fill="none" xmlns="http://www.w3.org/2000/svg">
<path d="M16.0395 7.49999C15.2483 3.82499 13.5608 1.49999 12 1.49999C10.4393 1.49999 8.75176 3.82499 7.96051 7.49999H16.0395ZM7.50001 12C7.49982 13.0033 7.56672 14.0056 7.70026 15H16.2998C16.4333 14.0056 16.5002 13.0033 16.5 12C16.5002 10.9966 16.4333 9.99441 16.2998 8.99999H7.70026C7.56672 9.99441 7.49982 10.9966 7.50001 12ZM7.96051 16.5C8.75176 20.175 10.4393 22.5 12 22.5C13.5608 22.5 15.2483 20.175 16.0395 16.5H7.96051ZM17.5755 7.49999H22.3005C21.5906 5.88431 20.5119 4.4575 19.1509 3.33399C17.79 2.21048 16.1847 1.42156 14.4638 1.03049C15.8865 2.28224 17.0025 4.59674 17.5755 7.49999ZM22.8398 8.99999H17.8148C17.9385 9.99519 18.0004 10.9971 18 12C18.0001 13.0029 17.938 14.0048 17.814 15H22.839C23.386 13.0374 23.3867 10.9626 22.8398 8.99999ZM14.4638 22.9695C16.1849 22.5786 17.7905 21.7898 19.1518 20.6663C20.513 19.5428 21.5919 18.1158 22.302 16.5H17.577C17.0025 19.4032 15.8865 21.7177 14.4638 22.9695ZM6.42451 16.5H1.69951C2.4096 18.1158 3.48854 19.5428 4.84976 20.6663C6.21098 21.7898 7.81658 22.5786 9.53776 22.9695C8.11351 21.7177 6.99751 19.4032 6.42451 16.5ZM9.53626 1.03049C7.81508 1.42134 6.20948 2.21018 4.84826 3.33369C3.48704 4.45721 2.4081 5.88414 1.69801 7.49999H6.42301C6.99751 4.59674 8.11351 2.28224 9.53626 1.03049ZM6.00001 12C5.99991 10.9971 6.06203 9.99518 6.18601 8.99999H1.16101C0.614056 10.9626 0.614056 13.0374 1.16101 15H6.18601C6.06203 14.0048 5.99991 13.0029 6.00001 12Z" fill="#3380FF"/>
</svg>
