<svg width="21" height="20" viewBox="0 0 21 20" fill="none" xmlns="http://www.w3.org/2000/svg">
<path d="M16.2803 8.25C16.6945 8.25 17.0303 7.91421 17.0303 7.5C17.0303 7.08579 16.6945 6.75 16.2803 6.75L11.5909 6.75L12.8106 5.53033C13.1035 5.23744 13.1035 4.76256 12.8106 4.46967C12.5177 4.17678 12.0428 4.17678 11.7499 4.46967L9.24994 6.96967C8.95705 7.26256 8.95705 7.73744 9.24994 8.03033L11.7499 10.5303C12.0428 10.8232 12.5177 10.8232 12.8106 10.5303C13.1035 10.2374 13.1035 9.76256 12.8106 9.46967L11.5909 8.25H16.2803Z" fill="#4A4A4A"/>
<path d="M3.78027 11.75C3.36606 11.75 3.03027 12.0858 3.03027 12.5C3.03027 12.9142 3.36606 13.25 3.78027 13.25H8.46961L7.24994 14.4697C6.95705 14.7626 6.95705 15.2374 7.24994 15.5303C7.54284 15.8232 8.01771 15.8232 8.3106 15.5303L10.8106 13.0303C11.1035 12.7374 11.1035 12.2626 10.8106 11.9697L8.3106 9.46967C8.01771 9.17678 7.54284 9.17678 7.24994 9.46967C6.95705 9.76256 6.95705 10.2374 7.24994 10.5303L8.46961 11.75H3.78027Z" fill="#4A4A4A"/>
</svg>
