<svg width="20" height="20" viewBox="0 0 20 20" fill="none" xmlns="http://www.w3.org/2000/svg">
<g clip-path="url(#clip0_2499_200)">
<path d="M3.33301 12.8153C2.63856 12.8153 2.04829 12.5722 1.56217 12.0861C1.07606 11.6 0.833008 11.0097 0.833008 10.3153C0.833008 9.62082 1.07606 9.03054 1.56217 8.54443C2.04829 8.05832 2.63856 7.81527 3.33301 7.81527V6.1486C3.33301 5.69027 3.4962 5.29791 3.82259 4.97152C4.14898 4.64513 4.54134 4.48193 4.99967 4.48193H7.49967C7.49967 3.78749 7.74273 3.19721 8.22884 2.7111C8.71495 2.22499 9.30523 1.98193 9.99967 1.98193C10.6941 1.98193 11.2844 2.22499 11.7705 2.7111C12.2566 3.19721 12.4997 3.78749 12.4997 4.48193H14.9997C15.458 4.48193 15.8504 4.64513 16.1768 4.97152C16.5031 5.29791 16.6663 5.69027 16.6663 6.1486V7.81527C17.3608 7.81527 17.9511 8.05832 18.4372 8.54443C18.9233 9.03054 19.1663 9.62082 19.1663 10.3153C19.1663 11.0097 18.9233 11.6 18.4372 12.0861C17.9511 12.5722 17.3608 12.8153 16.6663 12.8153V16.1486C16.6663 16.6069 16.5031 16.9993 16.1768 17.3257C15.8504 17.6521 15.458 17.8153 14.9997 17.8153H4.99967C4.54134 17.8153 4.14898 17.6521 3.82259 17.3257C3.4962 16.9993 3.33301 16.6069 3.33301 16.1486V12.8153ZM8.38509 10.784C8.62815 10.541 8.74967 10.2458 8.74967 9.8986C8.74967 9.55138 8.62815 9.25624 8.38509 9.01318C8.14204 8.77013 7.8469 8.6486 7.49967 8.6486C7.15245 8.6486 6.85731 8.77013 6.61426 9.01318C6.3712 9.25624 6.24967 9.55138 6.24967 9.8986C6.24967 10.2458 6.3712 10.541 6.61426 10.784C6.85731 11.0271 7.15245 11.1486 7.49967 11.1486C7.8469 11.1486 8.14204 11.0271 8.38509 10.784ZM13.3851 10.784C13.6281 10.541 13.7497 10.2458 13.7497 9.8986C13.7497 9.55138 13.6281 9.25624 13.3851 9.01318C13.142 8.77013 12.8469 8.6486 12.4997 8.6486C12.1525 8.6486 11.8573 8.77013 11.6143 9.01318C11.3712 9.25624 11.2497 9.55138 11.2497 9.8986C11.2497 10.2458 11.3712 10.541 11.6143 10.784C11.8573 11.0271 12.1525 11.1486 12.4997 11.1486C12.8469 11.1486 13.142 11.0271 13.3851 10.784ZM6.66634 14.4819H13.333V12.8153H6.66634V14.4819ZM4.99967 16.1486H14.9997V6.1486H4.99967V16.1486Z" fill="white"/>
</g>
<defs>
<clipPath id="clip0_2499_200">
<rect width="20" height="20" fill="white"/>
</clipPath>
</defs>
</svg>
