<svg width="142" height="51" viewBox="0 0 142 51" fill="none" xmlns="http://www.w3.org/2000/svg">
<g clip-path="url(#clip0_2066_1307)">
<path d="M1.02637 -0.509775C1.65446 -0.499896 2.59767 -0.222373 3.24661 -0.157058C5.95052 0.114976 8.56907 0.690259 11.2179 1.16407C12.0306 1.30945 12.9494 1.32551 13.7703 1.47C18.7472 2.19553 23.6494 3.14515 28.6525 3.77621C30.272 3.98046 31.9204 4.3353 33.5626 4.50545C33.8286 4.53303 34.6167 4.67437 34.8243 4.79271C34.9504 5.11888 34.748 11.3966 34.7466 12.278L34.9205 32.4085C34.96 34.1276 35.0123 35.8465 35.0776 37.5651C35.1076 38.3069 35.2133 39.0594 35.1879 39.8009C35.1813 39.9927 35.1733 40.5116 35.0375 40.6608C34.6041 41.1369 28.2072 41.6269 26.9994 42.0012C26.5047 42.1544 24.6002 43.2624 24.188 43.5652L24.1275 43.6102C23.7814 43.9311 22.7479 44.4004 22.2252 44.659C20.6498 45.4383 19.2741 46.4028 17.6665 47.1358C17.2123 47.3429 16.3418 48.0389 15.8854 47.7751C15.7259 47.171 18.1819 43.8155 18.1299 43.264C18.0809 43.2581 12.6368 44.1823 12.0401 44.2667C9.57212 44.6157 6.86941 45.0103 4.40341 45.4014C2.88351 45.6424 2.67685 45.429 1.03514 45.8868L1.02637 -0.509775Z" fill="#4686FE"/>
<path d="M17.9239 9.51575C18.1756 9.49958 18.428 9.49111 18.6806 9.49023C25.0927 9.51377 27.2622 12.7441 27.1701 17.126C27.1566 17.7714 27.1617 18.4431 27.1551 19.0914C25.4341 19.09 23.3893 19.1362 21.7087 19.0521C21.7586 17.5869 22.1378 15.1913 20.8286 13.9812C19.9184 13.1398 17.7766 13.1895 16.7478 13.9029C15.9323 14.4682 15.9131 15.0402 15.8758 15.8269C15.8043 20.9332 15.8279 26.044 15.8607 31.1505C15.8915 31.4247 15.8981 31.8006 15.9817 32.0666C16.6884 34.3139 21.1047 34.2293 21.5766 31.8493C21.8578 30.431 21.7571 29.1509 21.7311 27.7899C21.718 27.5147 21.7075 27.3967 21.7697 27.1264C22.0497 26.9279 26.46 27.0205 27.1769 27.0233C27.1007 29.9244 27.6882 33.2693 25.0754 35.6547C22.3649 38.1295 16.0945 38.2666 12.93 36.2413C9.76152 34.2136 10.1104 31.3327 10.115 28.5525L10.1224 23.5325L10.1138 18.5185C10.1124 17.078 10.0676 15.5393 10.3829 14.1208C10.7878 12.2992 12.6744 10.5528 14.9966 9.91742C15.9217 9.66428 16.9472 9.58445 17.9239 9.51575Z" fill="#FEFEFE"/>
<path d="M59.4079 11.4902C60.7511 11.5515 63.5628 11.3851 64.6357 11.7334C64.6867 13.8817 65.1957 16.6373 65.527 18.7819C65.837 20.7889 66.4698 22.7938 66.6772 24.8399C66.7756 25.8102 66.9066 26.7961 66.9933 27.7704C67.3518 29.6917 67.7337 31.5452 67.8534 33.5029C67.9033 34.3167 68.4988 35.3264 68.5037 36.1844C68.2808 36.6304 64.328 36.583 64.2435 36.1475C63.9806 34.7922 64.0097 33.3828 63.7211 32.0083C62.1861 31.9043 60.6469 31.8753 59.109 31.9214C59.0982 32.7956 59.0215 35.866 58.2117 36.3079C57.8671 36.4959 55.0875 36.5294 54.7183 36.3753C54.6085 33.685 55.7594 29.8083 56.1376 27.024C56.6026 24.1198 56.9481 21.1958 57.4702 18.2962C57.8022 16.4518 57.8654 13.4798 58.6465 11.8226C58.8656 11.5964 59.1 11.5686 59.4079 11.4902ZM59.6997 28.5034C60.4098 28.5183 62.3145 28.617 62.8909 28.263C62.9124 27.6403 62.6164 25.8922 62.527 25.1844C62.2144 22.7103 61.9917 20.3748 61.6233 17.9046C61.6075 17.4943 61.5543 17.104 61.3745 16.7338C61.2527 16.8572 61.2846 17.0129 61.2695 17.2267C60.9351 19.9266 60.4169 22.426 60.1052 25.124C59.9695 26.2984 59.6896 27.2664 59.6997 28.5034Z" fill="#4686FE"/>
<path d="M61.2686 23.9832C61.2836 23.7694 61.2518 23.6137 61.3735 23.4902C61.5534 23.8604 61.6065 24.2507 61.6224 24.661C61.2765 24.5735 61.3272 24.3054 61.2686 23.9832Z" fill="#4481FE" fill-opacity="0.0156863"/>
<path d="M87.0314 11.5542C87.6169 11.4474 91.2752 11.5063 92.1453 11.5077C92.3599 11.628 92.6275 11.8116 92.8403 11.9479C93.1133 13.0648 93.0217 14.3041 93.2157 15.4563L95.4543 28.5211C95.527 28.9419 95.4992 29.5159 95.5504 29.9582C95.5755 30.3749 95.738 30.79 95.791 31.1974C95.9868 32.7058 96.3073 34.1949 96.5022 35.6998C96.5354 35.9526 96.5094 36.1249 96.3738 36.3275C95.606 36.6724 94.3291 36.238 93.4833 36.4057C91.7547 36.7481 91.787 33.5726 91.8032 32.4114C91.805 32.2565 91.7745 32.1383 91.7448 31.9874C91.4 31.7704 87.8145 31.8684 87.1527 31.873C87.0853 32.4129 86.7971 35.7265 86.5699 36.137C86.3876 36.4651 83.5151 36.4721 82.9975 36.2277C82.8933 35.5879 83.4419 32.3975 83.5507 31.5601C83.88 29.0249 84.1778 26.4465 84.7135 23.9468C84.9334 22.9212 84.8665 21.6113 85.1111 20.5962C85.6208 18.5348 85.9889 16.4874 86.3041 14.3879C86.4352 13.5167 86.5483 12.6741 86.6067 11.7953C86.6148 11.6786 86.9201 11.5955 87.0314 11.5542ZM89.6526 28.4859C90.1554 28.4848 90.6529 28.5169 91.1297 28.3626C91.382 28.0526 90.8442 25.7685 90.7741 25.2226C90.6017 23.8735 90.7005 22.5407 90.0629 21.3138C89.7289 20.6711 89.8995 16.97 89.6526 16.554L89.4936 16.4722C88.8803 18.1526 89.0483 19.1624 88.8471 20.8838C88.6541 22.5273 88.3281 24.1491 88.206 25.8123C88.1539 26.5197 87.4041 27.7298 87.6798 28.3992C88.0659 28.5266 89.1856 28.4892 89.6526 28.4859Z" fill="#4686FE"/>
<path d="M47.0959 11.5344C48.4594 11.5889 49.8371 11.5919 51.2041 11.6257L51.1814 28.7953C51.1783 31.1562 51.2001 33.5151 51.2072 35.8757C51.2093 36.5997 50.5615 36.5305 50.017 36.4831C49.6248 36.4511 47.2336 36.5477 47.155 36.3326C46.6791 35.0312 47.2987 26.7034 46.7712 26.1071C45.8704 25.6597 43.6456 25.9273 42.571 25.9748C42.6493 26.8736 42.6936 35.7517 42.5656 36.2475C42.3216 36.5051 42.1984 36.5678 41.8279 36.503C41.0113 36.3602 39.1233 36.6826 38.4861 36.1241C38.4323 35.7928 38.6208 34.1705 38.629 33.6702C38.6537 32.1439 38.6471 30.6229 38.6479 29.0972L38.6617 15.1539C38.6657 14.4407 38.6871 13.7909 38.6485 13.0733C38.6284 12.7026 38.4505 12.1617 38.4625 11.9876C38.6436 11.7573 38.9466 11.7 39.2413 11.6002C40.0697 11.5672 41.3447 11.366 42.1248 11.6072C43.2883 11.9668 41.9994 20.392 42.7686 21.7427C42.8638 21.9099 43.0083 21.9953 43.1946 22.0415C43.8579 22.2059 46.1293 22.1394 46.71 21.8003C47.0753 21.4228 46.9594 20.6568 46.9826 20.1577C47.1113 17.3919 46.7721 14.2669 47.0959 11.5344Z" fill="#4686FE"/>
<path d="M140.166 11.5456C140.358 11.4759 140.381 11.474 140.577 11.5285C140.779 11.7816 140.72 12.3903 140.62 12.6716C139.537 15.7407 138.68 18.8593 137.868 22.0085C137.671 22.7709 137.228 23.5622 137.002 24.3163C136.581 25.7259 136.236 27.2096 135.992 28.6607C135.806 29.8078 136.187 35.7112 135.861 36.3303C135.346 36.5998 132.7 36.4518 131.833 36.4969L131.837 31.6532C131.838 30.7628 131.875 28.9919 131.704 28.1698C131.365 26.5462 130.78 25.1519 130.499 23.4615C129.341 20.4841 128.599 17.3454 127.731 14.2779C127.477 13.3826 127.204 12.5164 127.124 11.5857C128.294 11.5982 129.5 11.5741 130.674 11.5637L131.406 11.9851C131.564 13.6225 132.446 16.1096 132.879 17.7493C133.297 19.3366 133.494 20.9584 133.946 22.4897C135.481 19.1004 135.516 15.286 136.837 11.8594C137.01 11.4127 139.644 11.5896 140.166 11.5456Z" fill="#4686FE"/>
<path d="M114.472 11.5613C114.91 11.519 116.025 11.509 116.443 11.5493C118.713 11.7673 122.885 11.169 124.938 11.7591C124.96 12.3947 125.09 14.0972 124.821 14.7176C124.7 14.9136 124.194 15.0269 124.001 15.0293C122.126 15.0529 120.248 14.8892 118.369 15.0193C118.315 17.5312 118.474 19.8784 118.36 22.5245C119.243 22.5547 122.337 22.4282 122.958 22.5367C123.33 22.9374 123.447 25.7079 123.146 26.1604C122.659 26.2667 120.183 26.1879 119.519 26.1795C119.181 26.1553 118.706 26.1887 118.358 26.2028C118.403 27.4494 118.588 35.6243 118.309 36.3126C117.89 36.5505 114.69 36.4669 114.056 36.4434C113.988 35.7302 114.047 34.5488 114.052 33.799L114.059 29.1315C114.106 23.397 114.089 17.6622 114.008 11.928C114.188 11.6251 114.111 11.7189 114.472 11.5613Z" fill="#4686FE"/>
<path d="M100.852 11.4902C104.009 11.6856 107.269 11.3255 110.384 11.6781C110.868 11.7329 110.83 14.325 110.644 14.7011C110.46 15.0724 110.386 15.0544 110.001 15.0461C108.039 15.0034 105.974 14.8366 104.022 15.0607C104.207 16.8664 104.186 20.641 104.023 22.4522C105.571 22.554 107.704 22.6339 109.204 22.3665C109.214 23.6615 109.208 24.9566 109.184 26.2515C107.68 26.1723 106.289 26.1754 104.785 26.1698C104.678 26.1802 104.573 26.1919 104.467 26.205C104.358 26.2189 104.143 26.2421 104.078 26.3458C103.817 26.7585 104.561 35.667 103.97 36.3661C103.826 36.5365 100.439 36.469 99.9714 36.4983C99.8924 35.6647 99.9417 34.1891 99.9444 33.2953L99.9471 27.8205L99.9121 11.7961C100.126 11.5339 100.474 11.546 100.852 11.4902Z" fill="#4686FE"/>
<path d="M69.8801 11.4902C70.6609 11.6126 73.1904 11.5653 74.107 11.5645C76.6916 11.5813 79.2762 11.5629 81.8602 11.5091C81.8605 11.9345 81.9662 14.6618 81.6896 14.894C80.9656 15.502 77.604 14.2273 77.6475 15.6618C77.7062 17.5908 77.6869 19.6687 77.6865 21.5513C77.6695 25.3099 77.6788 29.0685 77.7145 32.8269C77.7471 33.582 77.942 35.7859 77.5982 36.3104C77.0619 36.5906 73.909 36.5787 73.5177 36.1459C73.4243 35.3095 73.5095 33.8355 73.5187 32.918L73.5286 27.4582L73.5234 19.6951C73.5225 18.4023 73.461 16.3069 73.6282 15.0919C72.7601 15.006 70.0081 15.1296 69.6269 14.8067C69.603 14.7258 69.5417 14.4715 69.5532 14.4075C69.6982 13.5976 69.366 12.059 69.8801 11.4902Z" fill="#4686FE"/>
</g>
<defs>
<clipPath id="clip0_2066_1307">
<rect width="142" height="51" fill="white"/>
</clipPath>
</defs>
</svg>
