<svg width="65" height="65" viewBox="0 0 65 65" fill="none" xmlns="http://www.w3.org/2000/svg">
<path d="M58.3608 33.8859V18.1139C58.3608 17.3533 58.0586 16.6239 57.5209 16.0861C56.9831 15.5483 56.2537 15.2462 55.4931 15.2462H9.61081C8.85026 15.2462 8.12086 15.5483 7.58307 16.0861C7.04529 16.6239 6.74316 17.3533 6.74316 18.1139V33.8859H58.3608Z" fill="#FCB910"/>
<path d="M13.29 34.6794V8.03605C13.2927 7.18585 13.6317 6.37126 14.2329 5.77008C14.8341 5.16889 15.6486 4.82992 16.4988 4.82715H48.5974C49.4487 4.82715 50.2651 5.16533 50.8671 5.76729C51.469 6.36926 51.8072 7.1857 51.8072 8.037V34.6794H13.29Z" fill="#E5E8F9"/>
<path d="M2.31732 26.062C2.27426 25.7889 2.29084 25.5098 2.36593 25.2437C2.44102 24.9777 2.57284 24.731 2.75231 24.5208C2.93179 24.3105 3.15467 24.1416 3.40564 24.0256C3.6566 23.9097 3.9297 23.8495 4.20614 23.8491H17.034C17.7557 23.8491 18.4153 24.2563 18.7393 24.9006L21.5238 30.4466C21.682 30.7621 21.9248 31.0274 22.2251 31.2127C22.5255 31.3981 22.8714 31.4962 23.2243 31.4962H60.7991C61.0815 31.4957 61.3604 31.558 61.6157 31.6786C61.871 31.7992 62.0963 31.975 62.2753 32.1935C62.4543 32.4119 62.5824 32.6673 62.6505 32.9414C62.7185 33.2154 62.7248 33.5011 62.6688 33.7779C62.08 36.6866 60.7704 43.2278 57.8684 57.8556C57.7393 58.5076 57.3885 59.0947 56.8754 59.5171C56.3624 59.9395 55.7188 60.1712 55.0542 60.1727H10.1545C9.47163 60.1726 8.81111 59.9288 8.29189 59.4851C7.77268 59.0414 7.42886 58.427 7.32232 57.7524L2.31732 26.062Z" fill="#FFCC33"/>
<path d="M41.2458 11.4227H23.8487C23.6586 11.4227 23.4762 11.3472 23.3418 11.2127C23.2074 11.0783 23.1318 10.8959 23.1318 10.7058C23.1318 10.5157 23.2074 10.3333 23.3418 10.1989C23.4762 10.0644 23.6586 9.98889 23.8487 9.98889H41.2458C41.4359 9.98889 41.6183 10.0644 41.7527 10.1989C41.8872 10.3333 41.9627 10.5157 41.9627 10.7058C41.9627 10.8959 41.8872 11.0783 41.7527 11.2127C41.6183 11.3472 41.4359 11.4227 41.2458 11.4227Z" fill="#FF4848"/>
<path d="M45.3215 16.2088H19.7765C19.5864 16.2088 19.4041 16.1333 19.2696 15.9989C19.1352 15.8644 19.0596 15.6821 19.0596 15.4919C19.0596 15.3018 19.1352 15.1195 19.2696 14.985C19.4041 14.8506 19.5864 14.775 19.7765 14.775H45.3215C45.5117 14.775 45.694 14.8506 45.8285 14.985C45.9629 15.1195 46.0385 15.3018 46.0385 15.4919C46.0385 15.6821 45.9629 15.8644 45.8285 15.9989C45.694 16.1333 45.5117 16.2088 45.3215 16.2088ZM45.3215 25.7791H19.7765C19.5864 25.7791 19.4041 25.7036 19.2696 25.5692C19.1352 25.4347 19.0596 25.2524 19.0596 25.0622C19.0596 24.8721 19.1352 24.6897 19.2696 24.5553C19.4041 24.4208 19.5864 24.3453 19.7765 24.3453H45.3215C45.5117 24.3453 45.694 24.4208 45.8285 24.5553C45.9629 24.6897 46.0385 24.8721 46.0385 25.0622C46.0385 25.2524 45.9629 25.4347 45.8285 25.5692C45.694 25.7036 45.5117 25.7791 45.3215 25.7791ZM45.3215 20.994H19.7765C19.5864 20.994 19.4041 20.9185 19.2696 20.784C19.1352 20.6496 19.0596 20.4672 19.0596 20.2771C19.0596 20.0869 19.1352 19.9046 19.2696 19.7701C19.4041 19.6357 19.5864 19.5602 19.7765 19.5602H45.3215C45.5117 19.5602 45.694 19.6357 45.8285 19.7701C45.9629 19.9046 46.0385 20.0869 46.0385 20.2771C46.0385 20.4672 45.9629 20.6496 45.8285 20.784C45.694 20.9185 45.5117 20.994 45.3215 20.994Z" fill="#C5CEEA"/>
<path d="M28.1719 45.6721L32.8385 38.957C32.9142 38.8481 33.0151 38.7592 33.1326 38.6978C33.2501 38.6364 33.3808 38.6042 33.5133 38.6042C33.6459 38.6042 33.7766 38.6364 33.8941 38.6978C34.0116 38.7592 34.1125 38.8481 34.1882 38.957L38.8462 45.673C38.9317 45.7964 38.9818 45.9408 38.9911 46.0905C39.0004 46.2403 38.9685 46.3898 38.8989 46.5228C38.8293 46.6557 38.7246 46.767 38.5961 46.8447C38.4677 46.9224 38.3205 46.9635 38.1704 46.9635H36.1153V53.4165C36.1153 53.6345 36.0287 53.8436 35.8745 53.9978C35.7203 54.152 35.5112 54.2387 35.2932 54.2387H31.7239C31.5059 54.2387 31.2968 54.152 31.1427 53.9978C30.9885 53.8436 30.9019 53.6345 30.9019 53.4165V46.9635H28.8467C28.6967 46.9633 28.5496 46.9221 28.4213 46.8443C28.2931 46.7666 28.1885 46.6553 28.119 46.5224C28.0495 46.3894 28.0177 46.2399 28.027 46.0902C28.0363 45.9405 28.0864 45.7953 28.1719 45.6721Z" fill="#FF4848"/>
<path d="M8.46275 41.881C8.34906 41.8808 8.23916 41.8401 8.15279 41.7661C8.06642 41.6922 8.00924 41.5899 7.9915 41.4776L6.41047 31.4676C6.39798 31.4045 6.39835 31.3395 6.41157 31.2766C6.42479 31.2136 6.45057 31.154 6.48738 31.1013C6.52419 31.0485 6.57127 31.0037 6.62579 30.9696C6.68032 30.9355 6.74117 30.9128 6.8047 30.9027C6.86823 30.8927 6.93314 30.8956 6.99552 30.9112C7.05791 30.9268 7.11651 30.9549 7.16779 30.9937C7.21907 31.0325 7.26199 31.0813 7.29397 31.1371C7.32596 31.1929 7.34635 31.2546 7.35393 31.3185L8.93496 41.3294C8.94573 41.3977 8.94159 41.4674 8.92281 41.5339C8.90404 41.6004 8.87107 41.662 8.82619 41.7145C8.78131 41.767 8.72558 41.8092 8.66284 41.8381C8.60009 41.867 8.53183 41.881 8.46275 41.881Z" fill="white"/>
</svg>
